<svg width="50" height="80" viewBox="0 0 50 55" fill="none" xmlns="http://www.w3.org/2000/svg">
<path d="M39.1668 16.6667C39.1668 24.4907 32.8242 30.8333 25.0002 30.8333C17.1761 30.8333 10.8335 24.4907 10.8335 16.6667C10.8335 8.84263 17.1761 2.5 25.0002 2.5C32.8242 2.5 39.1668 8.84263 39.1668 16.6667Z" fill="#00874D" stroke="#002817" stroke-width="5"/>
<mask id="path-2-inside-1_96_39" fill="white">
<path d="M50 55C50 51.717 49.3534 48.4661 48.097 45.4329C46.8406 42.3998 44.9991 39.6438 42.6777 37.3223C40.3562 35.0009 37.6002 33.1594 34.5671 31.903C31.5339 30.6466 28.283 30 25 30C21.717 30 18.4661 30.6466 15.4329 31.903C12.3998 33.1594 9.64379 35.0009 7.32233 37.3223C5.00086 39.6438 3.15938 42.3998 1.90301 45.4329C0.646644 48.4661 -2.87013e-07 51.717 0 55L25 55H50Z"/>
</mask>
<path d="M50 55C50 51.717 49.3534 48.4661 48.097 45.4329C46.8406 42.3998 44.9991 39.6438 42.6777 37.3223C40.3562 35.0009 37.6002 33.1594 34.5671 31.903C31.5339 30.6466 28.283 30 25 30C21.717 30 18.4661 30.6466 15.4329 31.903C12.3998 33.1594 9.64379 35.0009 7.32233 37.3223C5.00086 39.6438 3.15938 42.3998 1.90301 45.4329C0.646644 48.4661 -2.87013e-07 51.717 0 55L25 55H50Z" fill="#00874D" stroke="#002817" stroke-width="10" mask="url(#path-2-inside-1_96_39)"/>
</svg>
