<svg width="50" height="55" viewBox="0 0 50 55" fill="none" xmlns="http://www.w3.org/2000/svg">
<path fill-rule="evenodd" clip-rule="evenodd" d="M36.6667 16.6667C36.6667 23.11 31.4433 28.3333 25 28.3333C18.5567 28.3333 13.3333 23.11 13.3333 16.6667C13.3333 10.2233 18.5567 5 25 5C31.4433 5 36.6667 10.2233 36.6667 16.6667ZM32.9738 31.3057C38.1531 28.4786 41.6667 22.983 41.6667 16.6667C41.6667 7.46192 34.2047 0 25 0C15.7953 0 8.33333 7.46192 8.33333 16.6667C8.33333 22.983 11.8469 28.4786 17.0262 31.3057C13.4044 32.5246 10.0754 34.5693 7.32233 37.3223C3.83042 40.8142 1.47818 45.2328 0.505002 50C0.171544 51.6335 0 53.3079 0 55H5L25 55H45H50C50 53.3079 49.8285 51.6335 49.495 50C48.5218 45.2328 46.1696 40.8142 42.6777 37.3223C39.9246 34.5693 36.5956 32.5246 32.9738 31.3057ZM39.1421 40.8579C41.6898 43.4056 43.4792 46.5699 44.365 50H25L5.63503 50C6.52079 46.5699 8.31016 43.4056 10.8579 40.8579C14.6086 37.1071 19.6957 35 25 35C30.3043 35 35.3914 37.1071 39.1421 40.8579Z" fill="white"/>
</svg>
