<svg width="515" height="200" viewBox="0 0 515 200" fill="none" xmlns="http://www.w3.org/2000/svg">
<circle cx="100" cy="100" r="100" fill="black"/>
<path d="M167.497 167.497C180.846 154.147 189.937 137.139 193.62 118.622C197.304 100.106 195.413 80.9131 188.189 63.4711C180.964 46.029 168.729 31.1211 153.032 20.6324C137.334 10.1437 118.879 4.54541 100 4.54541C81.1209 4.54541 62.6657 10.1437 46.9683 20.6324C31.2709 31.1211 19.0362 46.029 11.8115 63.4711C4.58679 80.9131 2.69647 100.106 6.3796 118.622C10.0627 137.139 19.1539 154.147 32.5035 167.497L100 100L167.497 167.497Z" fill="#E22F11"/>
<path d="M161.068 161.068C173.146 148.99 181.372 133.602 184.704 116.849C188.037 100.096 186.326 82.7309 179.79 66.9501C173.253 51.1692 162.183 37.681 147.981 28.1913C133.779 18.7015 117.081 13.6364 100 13.6364C82.9189 13.6364 66.2214 18.7015 52.0189 28.1912C37.8165 37.681 26.7471 51.1692 20.2104 66.9501C13.6737 82.7309 11.9634 100.096 15.2958 116.849C18.6282 133.602 26.8535 148.99 38.9317 161.068L100 100L161.068 161.068Z" fill="#E83C14"/>
<path d="M154.64 154.64C165.447 143.833 172.806 130.065 175.788 115.075C178.77 100.086 177.239 84.5488 171.391 70.429C165.542 56.3093 155.638 44.2409 142.93 35.7501C130.223 27.2593 115.283 22.7273 100 22.7273C84.7169 22.7273 69.777 27.2593 57.0696 35.7501C44.3622 44.2409 34.4579 56.3093 28.6093 70.429C22.7607 84.5488 21.2305 100.086 24.2121 115.075C27.1937 130.065 34.5532 143.833 45.3599 154.64L100 100L154.64 154.64Z" fill="#F0581B"/>
<path d="M148.212 148.212C157.747 138.676 164.241 126.528 166.872 113.302C169.503 100.076 168.152 86.3665 162.992 73.9079C157.831 61.4493 149.092 50.8008 137.88 43.3089C126.667 35.817 113.485 31.8182 100 31.8182C86.5149 31.8182 73.3326 35.817 62.1202 43.3089C50.9078 50.8008 42.1687 61.4493 37.0082 73.9079C31.8477 86.3665 30.4975 100.076 33.1283 113.302C35.7591 126.528 42.2528 138.676 51.7882 148.212L100 100L148.212 148.212Z" fill="#FFA10F"/>
<path d="M141.784 141.784C150.048 133.52 155.675 122.991 157.956 111.528C160.236 100.066 159.065 88.1843 154.593 77.3869C150.12 66.5894 142.547 57.3607 132.829 50.8677C123.112 44.3747 111.687 40.9091 100 40.9091C88.313 40.9091 76.8883 44.3747 67.1709 50.8677C57.4534 57.3607 49.8796 66.5894 45.4071 77.3869C40.9347 88.1843 39.7645 100.066 42.0445 111.528C44.3246 122.991 49.9524 133.52 58.2164 141.784L100 100L141.784 141.784Z" fill="#FFC013"/>
<path d="M6.98559 121.445C11.8173 142.402 23.5845 161.113 40.3802 174.546C57.1758 187.978 78.0156 195.346 99.5219 195.453C121.028 195.561 141.941 188.403 158.87 175.139C175.799 161.875 187.754 143.283 192.795 122.376L100 100L6.98559 121.445Z" fill="#1E1E1E"/>
<path d="M159.091 50L175.624 78.6364H142.558L159.091 50Z" fill="#1E1E1E"/>
<path d="M159.091 59.0909L178.773 93.1819H139.409L159.091 59.0909Z" fill="#1E1E1E"/>
<path d="M159.091 69.0909L181.923 108.636H136.259L159.091 69.0909Z" fill="#1E1E1E"/>
<path d="M159.091 78.1818L185.072 123.182H133.11L159.091 78.1818Z" fill="#1E1E1E"/>
<path d="M43.6364 50L60.1696 78.6364H27.1032L43.6364 50Z" fill="#1E1E1E"/>
<path d="M43.6364 59.0909L63.3188 93.1819H23.954L43.6364 59.0909Z" fill="#1E1E1E"/>
<path d="M43.6363 69.0909L66.4679 108.636H20.8048L43.6363 69.0909Z" fill="#1E1E1E"/>
<path d="M43.6364 78.1818L69.6171 123.182H17.6556L43.6364 78.1818Z" fill="#1E1E1E"/>
<rect x="77.2727" y="78.1818" width="45.4545" height="30.9091" fill="#1E1E1E"/>
<path d="M96.8673 61.0088C98.7899 59.8317 101.21 59.8317 103.133 61.0088L127.503 75.9282C132.669 79.0909 130.428 87.0455 124.371 87.0455H75.6293C69.572 87.0455 67.3305 79.0909 72.4966 75.9283L96.8673 61.0088Z" fill="#1E1E1E"/>
<rect x="111.818" y="64.5455" width="10" height="13.6364" fill="#1E1E1E"/>
<g style="mix-blend-mode:difference" filter="url(#filter0_b_15_161)">
<rect x="81.8182" y="85.4545" width="20" height="16.3636" rx="1" fill="#FFC013"/>
</g>
<rect x="90.9091" y="85.4545" width="2.72727" height="16.3636" fill="#1E1E1E"/>
<rect x="81.8182" y="92.7273" width="20" height="2.72727" fill="#1E1E1E"/>
<path d="M242.665 98.56C241.732 98.56 241.025 98.3333 240.545 97.88C240.038 97.4267 239.785 96.9067 239.785 96.32C239.785 95.6 239.985 94.92 240.385 94.28C240.758 93.6133 241.278 93.28 241.945 93.28C242.318 93.28 242.652 93.3733 242.945 93.56C243.238 93.7467 243.492 93.92 243.705 94.08C243.918 94.2133 244.158 94.3467 244.425 94.48C244.692 94.5867 244.945 94.64 245.185 94.64C245.665 94.64 246.185 94.4267 246.745 94C247.332 93.5467 247.932 92.92 248.545 92.12C249.158 91.2933 249.785 90.32 250.425 89.2C251.092 88.0533 251.732 86.7867 252.345 85.4C252.985 84.0133 253.598 82.5333 254.185 80.96C254.798 79.36 255.345 77.6933 255.825 75.96C256.092 75.1067 255.958 74.4933 255.425 74.12C254.892 73.7467 253.972 73.44 252.665 73.2C252.372 73.1733 252.172 73.08 252.065 72.92C251.985 72.76 251.958 72.5733 251.985 72.36C252.012 72.2 252.132 72.08 252.345 72C252.558 71.8933 252.772 71.84 252.985 71.84C253.625 71.84 254.238 71.8533 254.825 71.88C255.412 71.9067 255.985 71.9333 256.545 71.96C257.132 71.9867 257.705 72 258.265 72H268.145C268.678 72 269.238 71.9867 269.825 71.96C270.412 71.9333 270.998 71.9067 271.585 71.88C272.198 71.8533 272.812 71.84 273.425 71.84C273.932 71.84 274.158 72.0267 274.105 72.4C274.052 72.6133 273.918 72.7867 273.705 72.92C273.492 73.0267 273.212 73.12 272.865 73.2C272.145 73.36 271.558 73.5467 271.105 73.76C270.652 73.9733 270.292 74.2533 270.025 74.6C269.785 74.9467 269.572 75.4133 269.385 76L263.825 94.08C263.585 94.9067 263.612 95.5067 263.905 95.88C264.225 96.2533 264.838 96.5733 265.745 96.84C266.038 96.92 266.238 97.0133 266.345 97.12C266.452 97.2267 266.492 97.3867 266.465 97.6C266.438 97.7867 266.332 97.92 266.145 98C265.958 98.08 265.732 98.12 265.465 98.12C264.852 98.12 264.238 98.1067 263.625 98.08C263.038 98.0533 262.438 98.0267 261.825 98C261.238 97.9733 260.678 97.96 260.145 97.96C259.292 97.96 258.398 97.9867 257.465 98.04C256.532 98.12 255.585 98.16 254.625 98.16C254.412 98.16 254.225 98.1067 254.065 98C253.932 97.92 253.878 97.8 253.905 97.64C254.012 97.24 254.425 96.9733 255.145 96.84C256.185 96.6267 256.972 96.3333 257.505 95.96C258.065 95.5867 258.478 94.9733 258.745 94.12L264.305 76C264.572 75.12 264.625 74.48 264.465 74.08C264.305 73.6533 263.732 73.44 262.745 73.44H260.385C259.638 73.44 259.078 73.6133 258.705 73.96C258.358 74.3067 258.065 74.8533 257.825 75.6C256.972 78.5333 256.038 81.2 255.025 83.6C254.038 86 253.012 88.1333 251.945 90C250.878 91.8667 249.798 93.44 248.705 94.72C247.638 95.9733 246.585 96.9333 245.545 97.6C244.532 98.24 243.572 98.56 242.665 98.56ZM274.981 98.6C274.315 98.6 273.608 98.3867 272.861 97.96C272.141 97.5067 271.528 96.9333 271.021 96.24C270.541 95.52 270.301 94.76 270.301 93.96C270.301 92.4133 270.595 90.8667 271.181 89.32C271.768 87.7733 272.568 86.3733 273.581 85.12C274.595 83.8667 275.741 82.8533 277.021 82.08C278.301 81.3067 279.621 80.92 280.981 80.92C282.315 80.92 283.301 81.1867 283.941 81.72C284.581 82.2267 284.901 82.8667 284.901 83.64C284.901 84.52 284.608 85.28 284.021 85.92C283.461 86.56 282.715 87.1067 281.781 87.56C280.875 88.0133 279.861 88.3867 278.741 88.68C277.648 88.9733 276.595 89.2267 275.581 89.44C275.448 89.4667 275.341 89.5067 275.261 89.56C275.208 89.5867 275.155 89.6667 275.101 89.8C274.995 90.1467 274.901 90.5067 274.821 90.88C274.741 91.2533 274.688 91.6133 274.661 91.96C274.635 92.8933 274.848 93.68 275.301 94.32C275.781 94.9333 276.475 95.24 277.381 95.24C278.208 95.24 278.941 95.04 279.581 94.64C280.221 94.2133 280.808 93.7067 281.341 93.12C281.635 92.8267 281.875 92.68 282.061 92.68C282.301 92.68 282.421 92.8133 282.421 93.08C282.421 93.16 282.408 93.2533 282.381 93.36C282.381 93.44 282.355 93.5067 282.301 93.56C281.795 94.4933 281.181 95.3467 280.461 96.12C279.741 96.8933 278.928 97.5067 278.021 97.96C277.115 98.3867 276.101 98.6 274.981 98.6ZM275.861 88.2C276.315 88.0933 276.861 87.9467 277.501 87.76C278.141 87.5467 278.755 87.2533 279.341 86.88C279.955 86.5067 280.461 86.0533 280.861 85.52C281.261 84.96 281.475 84.2933 281.501 83.52C281.528 83.2 281.448 82.9067 281.261 82.64C281.075 82.3733 280.795 82.24 280.421 82.24C279.915 82.24 279.395 82.4267 278.861 82.8C278.328 83.1733 277.821 83.6533 277.341 84.24C276.888 84.8 276.501 85.4133 276.181 86.08C275.861 86.7467 275.661 87.3733 275.581 87.96C275.555 88.1467 275.648 88.2267 275.861 88.2ZM289.829 98.56C289.002 98.56 288.229 98.3467 287.509 97.92C286.789 97.4667 286.202 96.8667 285.749 96.12C285.322 95.3467 285.109 94.4933 285.109 93.56C285.136 92.36 285.322 91.16 285.669 89.96C286.016 88.76 286.496 87.6267 287.109 86.56C287.749 85.4667 288.496 84.5067 289.349 83.68C290.229 82.8267 291.216 82.16 292.309 81.68C293.402 81.1733 294.576 80.92 295.829 80.92C296.762 80.92 297.496 81.12 298.029 81.52C298.589 81.8933 298.869 82.3733 298.869 82.96C298.869 83.44 298.709 83.92 298.389 84.4C298.069 84.88 297.736 85.12 297.389 85.12C297.176 85.12 296.989 85.04 296.829 84.88C296.669 84.6933 296.469 84.4 296.229 84C296.016 83.5733 295.749 83.2133 295.429 82.92C295.136 82.6 294.802 82.44 294.429 82.44C293.816 82.44 293.216 82.7467 292.629 83.36C292.042 83.9467 291.496 84.72 290.989 85.68C290.509 86.6133 290.109 87.6533 289.789 88.8C289.496 89.92 289.349 91 289.349 92.04C289.322 93 289.536 93.72 289.989 94.2C290.442 94.6533 291.069 94.88 291.869 94.88C292.616 94.88 293.282 94.72 293.869 94.4C294.456 94.0533 294.989 93.6133 295.469 93.08C295.602 92.92 295.722 92.8 295.829 92.72C295.962 92.64 296.096 92.6 296.229 92.6C296.469 92.6 296.589 92.7467 296.589 93.04C296.589 93.5467 296.389 94.12 295.989 94.76C295.616 95.4 295.096 96.0133 294.429 96.6C293.762 97.1867 293.029 97.6533 292.229 98C291.429 98.3733 290.629 98.56 289.829 98.56ZM302.414 98.56C302.041 98.56 301.694 98.4533 301.374 98.24C301.054 98.0533 300.788 97.8 300.574 97.48C300.388 97.1333 300.294 96.8133 300.294 96.52C300.294 96.3333 300.308 96.1733 300.334 96.04C300.388 95.88 300.441 95.7333 300.494 95.6L304.814 84.96C304.921 84.6933 304.974 84.4667 304.974 84.28C304.974 84.0667 304.841 83.96 304.574 83.96C304.254 83.96 303.814 84.08 303.254 84.32C302.694 84.56 302.094 84.9067 301.454 85.36C301.321 85.4667 301.161 85.52 300.974 85.52C300.814 85.52 300.748 85.4133 300.774 85.2C300.801 84.88 301.054 84.48 301.534 84C302.014 83.52 302.628 83.0533 303.374 82.6C304.121 82.12 304.894 81.72 305.694 81.4C306.494 81.08 307.214 80.92 307.854 80.92C308.388 80.92 308.814 81.2133 309.134 81.8C309.454 82.36 309.508 82.9467 309.294 83.56L307.534 88.04C307.454 88.2533 307.454 88.3867 307.534 88.44C307.614 88.4933 307.708 88.52 307.814 88.52L312.054 88.44C312.214 88.44 312.348 88.4133 312.454 88.36C312.561 88.28 312.641 88.1333 312.694 87.92L314.854 82.8C315.014 82.3733 315.334 82.0267 315.814 81.76C316.321 81.4933 316.828 81.2933 317.334 81.16C317.868 81 318.254 80.92 318.494 80.92C318.761 80.92 318.961 81.0133 319.094 81.2C319.228 81.3867 319.281 81.6533 319.254 82C319.228 82.1333 319.134 82.3733 318.974 82.72C318.814 83.04 318.561 83.6133 318.214 84.44L314.574 93.84C314.361 94.4267 314.334 94.76 314.494 94.84C314.654 94.84 314.841 94.8 315.054 94.72C315.268 94.6133 315.481 94.4933 315.694 94.36C315.908 94.2267 316.094 94.0933 316.254 93.96C316.441 93.8267 316.561 93.7333 316.614 93.68C316.748 93.68 316.934 93.6133 317.174 93.48C317.414 93.32 317.681 93.1333 317.974 92.92C318.268 92.7067 318.508 92.5067 318.694 92.32C318.854 92.2667 318.948 92.2933 318.974 92.4C319.054 92.4533 319.108 92.5467 319.134 92.68C319.161 92.7867 319.161 92.8933 319.134 93C318.894 93.4533 318.548 93.9333 318.094 94.44C317.641 94.9467 317.121 95.44 316.534 95.92C315.948 96.4 315.334 96.84 314.694 97.24C314.054 97.64 313.428 97.96 312.814 98.2C312.228 98.44 311.681 98.56 311.174 98.56C310.774 98.56 310.414 98.4267 310.094 98.16C309.801 97.8933 309.588 97.5733 309.454 97.2C309.348 96.8 309.361 96.4267 309.494 96.08L311.694 90.68C311.774 90.44 311.801 90.2933 311.774 90.24C311.748 90.16 311.654 90.12 311.494 90.12L307.174 90.24C307.068 90.24 306.948 90.2667 306.814 90.32C306.681 90.3467 306.574 90.4533 306.494 90.64L303.774 97.72C303.668 97.9867 303.481 98.1867 303.214 98.32C302.974 98.48 302.708 98.56 302.414 98.56ZM322.635 98.56C322.288 98.56 321.928 98.4533 321.555 98.24C321.208 98.0533 320.915 97.8133 320.675 97.52C320.435 97.2267 320.315 96.9333 320.315 96.64C320.315 95.76 320.582 94.7867 321.115 93.72C321.648 92.6533 322.462 91.4267 323.555 90.04C324.675 88.6267 326.115 87.0133 327.875 85.2C329.128 83.9467 330.235 82.96 331.195 82.24C332.182 81.4933 332.915 81.12 333.395 81.12C334.008 81.12 334.662 81.4267 335.355 82.04C335.595 82.3067 335.715 82.44 335.715 82.44C335.715 82.44 335.728 82.44 335.755 82.44C335.808 82.44 335.848 82.4267 335.875 82.4C335.902 82.3733 335.942 82.3067 335.995 82.2C336.262 81.72 336.435 81.4133 336.515 81.28C336.595 81.12 336.635 81.0133 336.635 80.96C336.768 80.64 337.035 80.48 337.435 80.48C337.808 80.48 338.182 80.56 338.555 80.72C338.955 80.88 339.275 81.08 339.515 81.32C339.782 81.5333 339.915 81.7333 339.915 81.92C339.915 82.08 339.875 82.28 339.795 82.52L335.635 93.72C335.368 94.4933 335.515 94.88 336.075 94.88C336.448 94.88 336.955 94.6533 337.595 94.2C338.262 93.72 338.888 93.1467 339.475 92.48C339.555 92.4267 339.608 92.4 339.635 92.4C339.662 92.3733 339.688 92.36 339.715 92.36C339.848 92.36 339.955 92.4133 340.035 92.52C340.115 92.6 340.155 92.7333 340.155 92.92C340.155 93.24 339.915 93.7067 339.435 94.32C338.982 94.9333 338.422 95.5333 337.755 96.12C336.875 96.8933 335.995 97.4933 335.115 97.92C334.235 98.3467 333.475 98.56 332.835 98.56C332.488 98.56 332.128 98.4533 331.755 98.24C331.382 98.0533 331.075 97.8133 330.835 97.52C330.595 97.2 330.475 96.8933 330.475 96.6C330.475 96.36 330.555 96.0533 330.715 95.68C330.715 95.6533 330.755 95.52 330.835 95.28C330.942 95.0133 331.075 94.6933 331.235 94.32C331.395 93.92 331.568 93.5333 331.755 93.16C331.942 92.76 332.115 92.3867 332.275 92.04C332.355 91.8533 332.355 91.72 332.275 91.64C332.222 91.5333 332.142 91.5333 332.035 91.64C330.595 93.2933 329.302 94.6267 328.155 95.64C327.035 96.6533 326.035 97.4 325.155 97.88C324.275 98.3333 323.435 98.56 322.635 98.56ZM326.195 94.88C326.702 94.88 327.475 94.44 328.515 93.56C329.555 92.68 330.662 91.5333 331.835 90.12C332.742 89.0267 333.462 88.04 333.995 87.16C334.528 86.28 334.795 85.64 334.795 85.24C334.795 85.0267 334.555 84.72 334.075 84.32C333.862 84.1333 333.622 83.9867 333.355 83.88C333.115 83.7733 332.915 83.72 332.755 83.72C332.328 83.72 331.728 83.96 330.955 84.44C330.208 84.92 329.502 85.48 328.835 86.12C328.195 86.76 327.582 87.5333 326.995 88.44C326.408 89.32 325.928 90.2133 325.555 91.12C325.182 92.0267 324.995 92.8133 324.995 93.48C324.995 93.9067 325.102 94.2533 325.315 94.52C325.528 94.76 325.822 94.88 326.195 94.88ZM354.091 98.56C353.691 98.56 353.317 98.4133 352.971 98.12C352.624 97.8533 352.357 97.5333 352.171 97.16C351.984 96.76 351.944 96.4133 352.051 96.12L354.251 90.28C354.331 90.0933 354.371 89.9467 354.371 89.84C354.371 89.7067 354.317 89.64 354.211 89.64C353.971 89.64 353.771 89.7067 353.611 89.84C353.477 89.9467 353.291 90.12 353.051 90.36C352.331 91.16 351.624 92.0267 350.931 92.96C350.264 93.8933 349.584 94.7733 348.891 95.6C348.197 96.4 347.464 97.0667 346.691 97.6C345.917 98.1333 345.091 98.4 344.211 98.4C343.037 98.4 342.197 98.12 341.691 97.56C341.157 97 340.891 96.3333 340.891 95.56C340.891 95.2133 340.944 94.88 341.051 94.56C341.157 94.2133 341.304 93.9067 341.491 93.64C341.944 93.96 342.437 94.2267 342.971 94.44C343.504 94.6533 344.144 94.76 344.891 94.76C345.344 94.76 345.904 94.5867 346.571 94.24C347.264 93.8667 348.024 93.36 348.851 92.72C349.677 92.0533 350.531 91.28 351.411 90.4C351.517 90.2933 351.557 90.2133 351.531 90.16C351.531 90.1067 351.451 90.0667 351.291 90.04C350.091 89.88 349.157 89.4267 348.491 88.68C347.851 87.9333 347.531 87.0933 347.531 86.16C347.531 85.2 347.851 84.3467 348.491 83.6C349.131 82.8533 350.037 82.2533 351.211 81.8C352.384 81.3467 353.784 81.12 355.411 81.12C355.944 81.12 356.384 81.1333 356.731 81.16C357.104 81.16 357.411 81.1733 357.651 81.2C357.917 81.2267 358.171 81.2533 358.411 81.28C358.651 81.28 358.931 81.28 359.251 81.28C359.677 81.28 360.131 81.2267 360.611 81.12C361.117 80.9867 361.411 80.92 361.491 80.92C361.677 80.92 361.797 81.0133 361.851 81.2C361.931 81.3867 361.971 81.5867 361.971 81.8C361.971 81.96 361.877 82.24 361.691 82.64C361.531 83.04 361.264 83.6667 360.891 84.52L356.971 94C356.837 94.32 356.784 94.56 356.811 94.72C356.837 94.88 356.944 94.96 357.131 94.96C357.344 94.96 357.624 94.8667 357.971 94.68C358.344 94.4933 358.731 94.2533 359.131 93.96C359.531 93.6667 359.904 93.3867 360.251 93.12C360.597 92.8267 360.864 92.5733 361.051 92.36C361.131 92.28 361.184 92.24 361.211 92.24C361.344 92.24 361.451 92.2933 361.531 92.4C361.637 92.5067 361.691 92.6267 361.691 92.76C361.691 93.1067 361.504 93.5333 361.131 94.04C360.757 94.52 360.264 95.0267 359.651 95.56C359.064 96.0667 358.424 96.5467 357.731 97C357.064 97.4533 356.397 97.8267 355.731 98.12C355.091 98.4133 354.544 98.56 354.091 98.56ZM354.371 88.32C354.584 88.32 354.784 88.28 354.971 88.2C355.157 88.0933 355.277 87.9467 355.331 87.76L357.091 83.32C357.251 82.9467 357.197 82.68 356.931 82.52C356.664 82.3333 356.184 82.24 355.491 82.24C354.451 82.24 353.531 82.5733 352.731 83.24C351.931 83.88 351.531 84.72 351.531 85.76C351.531 86.5067 351.797 87.12 352.331 87.6C352.864 88.08 353.544 88.32 354.371 88.32ZM373.4 98.56C372.973 98.56 372.586 98.4267 372.24 98.16C371.893 97.92 371.613 97.6133 371.4 97.24C371.186 96.8667 371.08 96.5067 371.08 96.16C371.08 95.8667 371.146 95.6267 371.28 95.44C371.413 95.2267 371.6 95.12 371.84 95.12C373.466 95.12 374.653 94.92 375.4 94.52C376.173 94.0933 376.773 93.4133 377.2 92.48C377.653 91.44 378.093 90.2133 378.52 88.8C378.946 87.36 379.4 85.8533 379.88 84.28C380.04 83.88 380.253 83.48 380.52 83.08C380.813 82.68 381.133 82.32 381.48 82C381.826 81.6533 382.186 81.3733 382.56 81.16C382.933 80.9467 383.293 80.84 383.64 80.84C383.8 80.84 383.906 80.9467 383.96 81.16C384.04 81.3733 384.093 81.6133 384.12 81.88L385.2 91.72C385.226 91.8533 385.28 91.9333 385.36 91.96C385.466 91.96 385.56 91.8933 385.64 91.76L390.52 85.28C391.32 84.24 392.106 83.4 392.88 82.76C393.68 82.12 394.4 81.6533 395.04 81.36C395.68 81.0667 396.146 80.92 396.44 80.92C396.706 80.92 396.92 81 397.08 81.16C397.266 81.32 397.386 81.5067 397.44 81.72C397.52 81.9067 397.493 82.08 397.36 82.24C397.2 82.48 397.04 82.76 396.88 83.08C396.72 83.3733 396.56 83.7333 396.4 84.16L393.28 93.72C393.146 94.04 393.08 94.3067 393.08 94.52C393.106 94.7333 393.213 94.84 393.4 94.84C393.613 94.84 393.893 94.7467 394.24 94.56C394.586 94.3733 394.946 94.1467 395.32 93.88C395.72 93.5867 396.08 93.3067 396.4 93.04C396.746 92.7733 397.013 92.5333 397.2 92.32C397.253 92.2667 397.306 92.24 397.36 92.24C397.466 92.24 397.56 92.2933 397.64 92.4C397.746 92.5067 397.8 92.6267 397.8 92.76C397.8 93.08 397.6 93.48 397.2 93.96C396.826 94.44 396.333 94.9467 395.72 95.48C395.106 96.0133 394.426 96.52 393.68 97C392.96 97.4533 392.253 97.8267 391.56 98.12C390.893 98.4133 390.306 98.56 389.8 98.56C389.506 98.56 389.213 98.4267 388.92 98.16C388.626 97.8933 388.386 97.6 388.2 97.28C388.013 96.9333 387.96 96.6667 388.04 96.48L391.72 86.32C391.773 86.16 391.773 86.0533 391.72 86C391.666 85.92 391.586 85.9733 391.48 86.16L383.36 97.32C383.146 97.6133 382.946 97.84 382.76 98C382.573 98.1867 382.373 98.28 382.16 98.28C382 98.28 381.88 98.2 381.8 98.04C381.72 97.88 381.666 97.68 381.64 97.44L380.88 86.84C380.88 86.68 380.813 86.6267 380.68 86.68C380.573 86.7333 380.493 86.8667 380.44 87.08C380.013 88.68 379.546 90.1733 379.04 91.56C378.56 92.9467 378.026 94.16 377.44 95.2C376.88 96.24 376.266 97.0667 375.6 97.68C374.933 98.2667 374.2 98.56 373.4 98.56ZM404.317 98.6C403.651 98.6 402.944 98.3867 402.197 97.96C401.477 97.5067 400.864 96.9333 400.357 96.24C399.877 95.52 399.637 94.76 399.637 93.96C399.637 92.4133 399.931 90.8667 400.517 89.32C401.104 87.7733 401.904 86.3733 402.917 85.12C403.931 83.8667 405.077 82.8533 406.357 82.08C407.637 81.3067 408.957 80.92 410.317 80.92C411.651 80.92 412.637 81.1867 413.277 81.72C413.917 82.2267 414.237 82.8667 414.237 83.64C414.237 84.52 413.944 85.28 413.357 85.92C412.797 86.56 412.051 87.1067 411.117 87.56C410.211 88.0133 409.197 88.3867 408.077 88.68C406.984 88.9733 405.931 89.2267 404.917 89.44C404.784 89.4667 404.677 89.5067 404.597 89.56C404.544 89.5867 404.491 89.6667 404.437 89.8C404.331 90.1467 404.237 90.5067 404.157 90.88C404.077 91.2533 404.024 91.6133 403.997 91.96C403.971 92.8933 404.184 93.68 404.637 94.32C405.117 94.9333 405.811 95.24 406.717 95.24C407.544 95.24 408.277 95.04 408.917 94.64C409.557 94.2133 410.144 93.7067 410.677 93.12C410.971 92.8267 411.211 92.68 411.397 92.68C411.637 92.68 411.757 92.8133 411.757 93.08C411.757 93.16 411.744 93.2533 411.717 93.36C411.717 93.44 411.691 93.5067 411.637 93.56C411.131 94.4933 410.517 95.3467 409.797 96.12C409.077 96.8933 408.264 97.5067 407.357 97.96C406.451 98.3867 405.437 98.6 404.317 98.6ZM405.197 88.2C405.651 88.0933 406.197 87.9467 406.837 87.76C407.477 87.5467 408.091 87.2533 408.677 86.88C409.291 86.5067 409.797 86.0533 410.197 85.52C410.597 84.96 410.811 84.2933 410.837 83.52C410.864 83.2 410.784 82.9067 410.597 82.64C410.411 82.3733 410.131 82.24 409.757 82.24C409.251 82.24 408.731 82.4267 408.197 82.8C407.664 83.1733 407.157 83.6533 406.677 84.24C406.224 84.8 405.837 85.4133 405.517 86.08C405.197 86.7467 404.997 87.3733 404.917 87.96C404.891 88.1467 404.984 88.2267 405.197 88.2ZM425.445 98.56C424.885 98.56 424.458 98.3467 424.165 97.92C423.872 97.4667 423.725 97 423.725 96.52C423.725 96.3867 423.752 96.2267 423.805 96.04C423.858 95.8267 423.952 95.5733 424.085 95.28C424.458 94.4267 424.805 93.6267 425.125 92.88C425.445 92.1333 425.765 91.4133 426.085 90.72C426.405 90.0267 426.725 89.32 427.045 88.6C427.125 88.3867 427.125 88.2533 427.045 88.2C426.992 88.1467 426.912 88.1867 426.805 88.32C425.605 89.68 424.365 90.8133 423.085 91.72C421.832 92.6 420.618 93.04 419.445 93.04C418.858 93.04 418.325 92.8933 417.845 92.6C417.365 92.28 417.045 91.8533 416.885 91.32C416.752 90.7867 416.832 90.1733 417.125 89.48L418.845 85.68C419.005 85.3867 419.085 85.1467 419.085 84.96C419.112 84.7733 419.032 84.68 418.845 84.68C418.658 84.68 418.418 84.7733 418.125 84.96C417.832 85.12 417.525 85.3333 417.205 85.6C416.885 85.8667 416.605 86.1333 416.365 86.4C416.258 86.5333 416.138 86.6533 416.005 86.76C415.898 86.8667 415.792 86.92 415.685 86.92C415.445 86.92 415.325 86.76 415.325 86.44C415.325 86.3067 415.365 86.1333 415.445 85.92C415.525 85.7067 415.672 85.4667 415.885 85.2C416.472 84.4267 417.192 83.72 418.045 83.08C418.925 82.4133 419.805 81.88 420.685 81.48C421.565 81.08 422.298 80.88 422.885 80.88C423.418 80.88 423.778 81.0933 423.965 81.52C424.178 81.92 424.098 82.5333 423.725 83.36L421.605 88.2C421.418 88.5733 421.392 88.8933 421.525 89.16C421.685 89.4267 421.872 89.56 422.085 89.56C422.458 89.56 422.925 89.4267 423.485 89.16C424.072 88.8933 424.672 88.52 425.285 88.04C425.925 87.5333 426.498 86.9333 427.005 86.24C427.352 85.76 427.738 85.1733 428.165 84.48C428.618 83.76 429.032 82.96 429.405 82.08C429.512 81.7867 429.778 81.56 430.205 81.4C430.658 81.2133 431.098 81.0933 431.525 81.04C431.978 80.96 432.298 80.92 432.485 80.92C433.018 80.92 433.312 81.1067 433.365 81.48C433.445 81.8267 433.365 82.3067 433.125 82.92L428.885 93.8C428.672 94.3867 428.685 94.7067 428.925 94.76C429.058 94.7867 429.218 94.76 429.405 94.68C429.618 94.5733 429.832 94.4533 430.045 94.32C430.258 94.1867 430.445 94.0533 430.605 93.92C430.792 93.7867 430.912 93.6933 430.965 93.64C431.072 93.64 431.245 93.5733 431.485 93.44C431.725 93.28 431.978 93.1067 432.245 92.92C432.538 92.7067 432.778 92.5067 432.965 92.32C433.125 92.2667 433.218 92.2933 433.245 92.4C433.325 92.4533 433.378 92.5467 433.405 92.68C433.458 92.7867 433.472 92.8933 433.445 93C433.258 93.4533 432.952 93.9333 432.525 94.44C432.098 94.9467 431.578 95.44 430.965 95.92C430.378 96.4 429.752 96.84 429.085 97.24C428.445 97.64 427.805 97.96 427.165 98.2C426.552 98.44 425.978 98.56 425.445 98.56ZM438.464 98.6C438.278 98.6 438.038 98.52 437.744 98.36C437.478 98.2 437.238 97.9733 437.024 97.68C436.838 97.3867 436.744 97.0667 436.744 96.72C436.744 96.5867 436.784 96.3733 436.864 96.08C436.971 95.76 437.104 95.3867 437.264 94.96L441.304 85C441.438 84.7067 441.451 84.4667 441.344 84.28C441.238 84.0667 441.038 83.96 440.744 83.96C440.451 83.96 440.038 84.0533 439.504 84.24C438.971 84.4 438.384 84.8533 437.744 85.6C437.638 85.7333 437.491 85.8 437.304 85.8C437.118 85.7733 437.011 85.64 436.984 85.4C436.984 85.2133 437.051 84.9733 437.184 84.68C437.318 84.3867 437.491 84.0933 437.704 83.8C437.918 83.48 438.104 83.24 438.264 83.08C438.878 82.4933 439.531 82 440.224 81.6C440.944 81.1733 441.878 80.9467 443.024 80.92C443.558 80.92 444.011 81.0533 444.384 81.32C444.784 81.5867 445.038 81.96 445.144 82.44C445.251 82.92 445.184 83.4667 444.944 84.08L442.664 89.56C442.584 89.7467 442.611 89.8533 442.744 89.88C442.878 89.9067 442.984 89.84 443.064 89.68C444.104 88 445.118 86.5067 446.104 85.2C447.091 83.8667 448.064 82.8267 449.024 82.08C450.011 81.3067 451.024 80.92 452.064 80.92C452.918 80.92 453.571 81.1733 454.024 81.68C454.478 82.1867 454.718 82.8533 454.744 83.68C454.798 84.48 454.611 85.3333 454.184 86.24L453.344 88.48C453.238 88.6667 453.264 88.7733 453.424 88.8C453.584 88.8267 453.718 88.76 453.824 88.6C454.731 87.1067 455.651 85.7867 456.584 84.64C457.544 83.4933 458.518 82.5867 459.504 81.92C460.491 81.2533 461.491 80.92 462.504 80.92C463.358 80.92 463.984 81.1733 464.384 81.68C464.784 82.1867 464.971 82.8533 464.944 83.68C464.944 84.5067 464.744 85.4133 464.344 86.4L461.344 93.64C460.998 94.52 461.051 94.96 461.504 94.96C461.718 94.96 461.998 94.8533 462.344 94.64C462.691 94.4267 463.051 94.1733 463.424 93.88C463.798 93.5867 464.131 93.3067 464.424 93.04C464.744 92.7733 464.971 92.5733 465.104 92.44C465.211 92.36 465.304 92.28 465.384 92.2C465.491 92.0933 465.584 92.04 465.664 92.04C465.744 92.04 465.824 92.0933 465.904 92.2C465.984 92.28 466.024 92.3733 466.024 92.48C465.998 92.7467 465.931 93 465.824 93.24C465.744 93.48 465.571 93.7333 465.304 94C464.238 95.2533 463.024 96.3333 461.664 97.24C460.304 98.12 458.904 98.56 457.464 98.56C457.251 98.56 456.984 98.4667 456.664 98.28C456.344 98.12 456.091 97.8933 455.904 97.6C455.718 97.3067 455.691 97 455.824 96.68L460.984 84.68C461.198 84.2267 461.211 83.8667 461.024 83.6C460.864 83.3333 460.664 83.2 460.424 83.2C460.051 83.1733 459.584 83.4133 459.024 83.92C458.464 84.4 457.824 85.12 457.104 86.08C456.651 86.7467 456.078 87.6133 455.384 88.68C454.691 89.7467 453.971 90.8933 453.224 92.12C452.478 93.32 451.758 94.5067 451.064 95.68C450.718 96.2667 450.331 96.7867 449.904 97.24C449.478 97.6933 449.064 98.0267 448.664 98.24C448.291 98.48 447.971 98.6 447.704 98.6C447.491 98.6 447.264 98.52 447.024 98.36C446.811 98.2 446.611 98 446.424 97.76C446.264 97.4933 446.184 97.2533 446.184 97.04C446.184 96.9067 446.238 96.64 446.344 96.24C446.451 95.84 446.598 95.3733 446.784 94.84L450.904 84.56C451.118 84.0533 451.131 83.6933 450.944 83.48C450.784 83.24 450.598 83.12 450.384 83.12C450.011 83.0933 449.518 83.3467 448.904 83.88C448.291 84.4133 447.571 85.2267 446.744 86.32C446.371 86.8 445.958 87.4 445.504 88.12C445.051 88.84 444.571 89.6267 444.064 90.48C443.584 91.3067 443.091 92.16 442.584 93.04C442.104 93.92 441.651 94.7467 441.224 95.52C440.664 96.56 440.171 97.3333 439.744 97.84C439.344 98.3467 438.918 98.6 438.464 98.6ZM469.12 98.56C468.773 98.56 468.413 98.4533 468.04 98.24C467.693 98.0533 467.4 97.8133 467.16 97.52C466.92 97.2267 466.8 96.9333 466.8 96.64C466.8 95.76 467.066 94.7867 467.6 93.72C468.133 92.6533 468.946 91.4267 470.04 90.04C471.16 88.6267 472.6 87.0133 474.36 85.2C475.613 83.9467 476.72 82.96 477.68 82.24C478.666 81.4933 479.4 81.12 479.88 81.12C480.493 81.12 481.146 81.4267 481.84 82.04C482.08 82.3067 482.2 82.44 482.2 82.44C482.2 82.44 482.213 82.44 482.24 82.44C482.293 82.44 482.333 82.4267 482.36 82.4C482.386 82.3733 482.426 82.3067 482.48 82.2C482.746 81.72 482.92 81.4133 483 81.28C483.08 81.12 483.12 81.0133 483.12 80.96C483.253 80.64 483.52 80.48 483.92 80.48C484.293 80.48 484.666 80.56 485.04 80.72C485.44 80.88 485.76 81.08 486 81.32C486.266 81.5333 486.4 81.7333 486.4 81.92C486.4 82.08 486.36 82.28 486.28 82.52L482.12 93.72C481.853 94.4933 482 94.88 482.56 94.88C482.933 94.88 483.44 94.6533 484.08 94.2C484.746 93.72 485.373 93.1467 485.96 92.48C486.04 92.4267 486.093 92.4 486.12 92.4C486.146 92.3733 486.173 92.36 486.2 92.36C486.333 92.36 486.44 92.4133 486.52 92.52C486.6 92.6 486.64 92.7333 486.64 92.92C486.64 93.24 486.4 93.7067 485.92 94.32C485.466 94.9333 484.906 95.5333 484.24 96.12C483.36 96.8933 482.48 97.4933 481.6 97.92C480.72 98.3467 479.96 98.56 479.32 98.56C478.973 98.56 478.613 98.4533 478.24 98.24C477.866 98.0533 477.56 97.8133 477.32 97.52C477.08 97.2 476.96 96.8933 476.96 96.6C476.96 96.36 477.04 96.0533 477.2 95.68C477.2 95.6533 477.24 95.52 477.32 95.28C477.426 95.0133 477.56 94.6933 477.72 94.32C477.88 93.92 478.053 93.5333 478.24 93.16C478.426 92.76 478.6 92.3867 478.76 92.04C478.84 91.8533 478.84 91.72 478.76 91.64C478.706 91.5333 478.626 91.5333 478.52 91.64C477.08 93.2933 475.786 94.6267 474.64 95.64C473.52 96.6533 472.52 97.4 471.64 97.88C470.76 98.3333 469.92 98.56 469.12 98.56ZM472.68 94.88C473.186 94.88 473.96 94.44 475 93.56C476.04 92.68 477.146 91.5333 478.32 90.12C479.226 89.0267 479.946 88.04 480.48 87.16C481.013 86.28 481.28 85.64 481.28 85.24C481.28 85.0267 481.04 84.72 480.56 84.32C480.346 84.1333 480.106 83.9867 479.84 83.88C479.6 83.7733 479.4 83.72 479.24 83.72C478.813 83.72 478.213 83.96 477.44 84.44C476.693 84.92 475.986 85.48 475.32 86.12C474.68 86.76 474.066 87.5333 473.48 88.44C472.893 89.32 472.413 90.2133 472.04 91.12C471.666 92.0267 471.48 92.8133 471.48 93.48C471.48 93.9067 471.586 94.2533 471.8 94.52C472.013 94.76 472.306 94.88 472.68 94.88ZM219.519 137.12C219.339 137.12 219.189 137.08 219.069 137C218.949 136.94 218.899 136.85 218.919 136.73C218.959 136.57 219.069 136.45 219.249 136.37C219.429 136.27 219.649 136.19 219.909 136.13C220.689 135.97 221.299 135.75 221.739 135.47C222.179 135.17 222.499 134.69 222.699 134.03L226.539 121.22C226.859 120.12 227.009 119.41 226.989 119.09C226.969 118.77 226.799 118.61 226.479 118.61H224.709C223.909 118.61 223.199 118.8 222.579 119.18C221.959 119.56 221.429 119.99 220.989 120.47C220.829 120.65 220.639 120.86 220.419 121.1C220.199 121.34 219.979 121.55 219.759 121.73C219.539 121.91 219.349 122 219.189 122C219.029 122 218.929 121.96 218.889 121.88C218.869 121.8 218.859 121.69 218.859 121.55C218.879 121.45 218.919 121.33 218.979 121.19C219.039 121.03 219.129 120.86 219.249 120.68C219.709 120.08 220.079 119.51 220.359 118.97C220.639 118.41 220.889 117.81 221.109 117.17C221.189 116.95 221.289 116.78 221.409 116.66C221.549 116.52 221.689 116.45 221.829 116.45C221.989 116.45 222.159 116.52 222.339 116.66C222.519 116.8 222.689 116.93 222.849 117.05C222.989 117.15 223.129 117.24 223.269 117.32C223.429 117.4 223.679 117.47 224.019 117.53C224.359 117.59 224.849 117.62 225.489 117.62L234.609 117.59C235.369 117.59 235.949 117.57 236.349 117.53C236.769 117.47 237.069 117.41 237.249 117.35C237.449 117.27 237.589 117.2 237.669 117.14C237.949 117.02 238.189 116.88 238.389 116.72C238.589 116.56 238.769 116.48 238.929 116.48C239.189 116.48 239.279 116.62 239.199 116.9C239.199 117 239.169 117.12 239.109 117.26C239.049 117.38 238.989 117.49 238.929 117.59C238.669 118.05 238.399 118.61 238.119 119.27C237.859 119.91 237.629 120.61 237.429 121.37C237.349 121.65 237.259 121.86 237.159 122C237.079 122.12 236.969 122.18 236.829 122.18C236.649 122.18 236.519 122.1 236.439 121.94C236.379 121.78 236.349 121.54 236.349 121.22C236.329 120.36 236.159 119.71 235.839 119.27C235.539 118.83 234.989 118.61 234.189 118.61H232.179C231.879 118.61 231.629 118.68 231.429 118.82C231.249 118.94 231.079 119.19 230.919 119.57C230.759 119.95 230.559 120.51 230.319 121.25L226.479 134C226.299 134.64 226.329 135.11 226.569 135.41C226.829 135.71 227.309 135.95 228.009 136.13C228.229 136.19 228.389 136.26 228.489 136.34C228.589 136.42 228.629 136.54 228.609 136.7C228.569 136.84 228.469 136.94 228.309 137C228.169 137.06 227.999 137.09 227.799 137.09C227.359 137.09 226.899 137.08 226.419 137.06C225.939 137.04 225.469 137.02 225.009 137C224.569 136.98 224.149 136.97 223.749 136.97C223.309 136.97 222.849 136.98 222.369 137C221.909 137.02 221.429 137.04 220.929 137.06C220.449 137.1 219.979 137.12 219.519 137.12ZM237.374 137.42C235.854 137.42 234.734 137.01 234.014 136.19C233.314 135.35 233.144 134.29 233.504 133.01C233.744 132.23 233.964 131.53 234.164 130.91C234.384 130.29 234.624 129.68 234.884 129.08C235.644 127.38 236.594 126.14 237.734 125.36C238.894 124.58 240.244 124.19 241.784 124.19C242.284 124.19 242.774 124.29 243.254 124.49C243.734 124.69 244.134 124.99 244.454 125.39C244.774 125.79 244.934 126.28 244.934 126.86C244.934 127.44 244.734 127.95 244.334 128.39C243.954 128.81 243.464 129.17 242.864 129.47C242.284 129.77 241.684 130 241.064 130.16C240.984 130.18 240.944 130.22 240.944 130.28C240.944 130.34 240.994 130.39 241.094 130.43C241.554 130.55 241.984 130.74 242.384 131C242.804 131.26 243.144 131.58 243.404 131.96C243.684 132.34 243.824 132.77 243.824 133.25C243.824 133.89 243.654 134.47 243.314 134.99C242.994 135.51 242.534 135.95 241.934 136.31C241.354 136.67 240.674 136.94 239.894 137.12C239.114 137.32 238.274 137.42 237.374 137.42ZM237.794 136.46C238.194 136.46 238.594 136.31 238.994 136.01C239.414 135.71 239.764 135.31 240.044 134.81C240.344 134.29 240.494 133.71 240.494 133.07C240.494 132.43 240.334 131.95 240.014 131.63C239.714 131.29 239.314 131.12 238.814 131.12C238.334 131.12 237.934 131.21 237.614 131.39C237.294 131.55 237.074 131.87 236.954 132.35L236.324 134.48C236.224 134.84 236.224 135.17 236.324 135.47C236.444 135.77 236.634 136.01 236.894 136.19C237.154 136.37 237.454 136.46 237.794 136.46ZM237.914 130.49C238.554 130.43 239.184 130.23 239.804 129.89C240.424 129.53 240.934 129.07 241.334 128.51C241.754 127.95 241.964 127.35 241.964 126.71C241.964 126.33 241.874 126 241.694 125.72C241.534 125.44 241.244 125.3 240.824 125.3C240.424 125.3 240.034 125.46 239.654 125.78C239.294 126.08 238.964 126.54 238.664 127.16C238.364 127.76 238.094 128.5 237.854 129.38L237.644 130.16C237.624 130.26 237.644 130.34 237.704 130.4C237.764 130.46 237.834 130.49 237.914 130.49ZM249.785 137.42C249.125 137.42 248.495 137.25 247.895 136.91C247.315 136.55 246.845 136.08 246.485 135.5C246.145 134.9 245.975 134.22 245.975 133.46C245.975 132.52 246.165 131.52 246.545 130.46C246.945 129.4 247.505 128.4 248.225 127.46C248.945 126.5 249.805 125.72 250.805 125.12C251.825 124.5 252.955 124.19 254.195 124.19C255.415 124.19 256.385 124.56 257.105 125.3C257.845 126.02 258.215 127 258.215 128.24C258.215 129.14 258.025 130.12 257.645 131.18C257.265 132.24 256.705 133.25 255.965 134.21C255.225 135.15 254.335 135.92 253.295 136.52C252.275 137.12 251.105 137.42 249.785 137.42ZM250.355 136.34C250.775 136.34 251.195 136.12 251.615 135.68C252.055 135.24 252.475 134.67 252.875 133.97C253.275 133.25 253.625 132.46 253.925 131.6C254.245 130.74 254.495 129.88 254.675 129.02C254.875 128.16 254.975 127.38 254.975 126.68C254.975 126.24 254.895 125.89 254.735 125.63C254.575 125.37 254.285 125.24 253.865 125.24C253.485 125.24 253.075 125.45 252.635 125.87C252.215 126.29 251.805 126.85 251.405 127.55C251.005 128.23 250.635 129 250.295 129.86C249.975 130.7 249.715 131.55 249.515 132.41C249.315 133.27 249.215 134.08 249.215 134.84C249.215 135.36 249.315 135.74 249.515 135.98C249.735 136.22 250.015 136.34 250.355 136.34ZM262.579 137.45C262.079 137.45 261.549 137.29 260.989 136.97C260.449 136.63 259.989 136.2 259.609 135.68C259.249 135.14 259.069 134.57 259.069 133.97C259.069 132.81 259.289 131.65 259.729 130.49C260.169 129.33 260.769 128.28 261.529 127.34C262.289 126.4 263.149 125.64 264.109 125.06C265.069 124.48 266.059 124.19 267.079 124.19C268.079 124.19 268.819 124.39 269.299 124.79C269.779 125.17 270.019 125.65 270.019 126.23C270.019 126.89 269.799 127.46 269.359 127.94C268.939 128.42 268.379 128.83 267.679 129.17C266.999 129.51 266.239 129.79 265.399 130.01C264.579 130.23 263.789 130.42 263.029 130.58C262.929 130.6 262.849 130.63 262.789 130.67C262.749 130.69 262.709 130.75 262.669 130.85C262.589 131.11 262.519 131.38 262.459 131.66C262.399 131.94 262.359 132.21 262.339 132.47C262.319 133.17 262.479 133.76 262.819 134.24C263.179 134.7 263.699 134.93 264.379 134.93C264.999 134.93 265.549 134.78 266.029 134.48C266.509 134.16 266.949 133.78 267.349 133.34C267.569 133.12 267.749 133.01 267.889 133.01C268.069 133.01 268.159 133.11 268.159 133.31C268.159 133.37 268.149 133.44 268.129 133.52C268.129 133.58 268.109 133.63 268.069 133.67C267.689 134.37 267.229 135.01 266.689 135.59C266.149 136.17 265.539 136.63 264.859 136.97C264.179 137.29 263.419 137.45 262.579 137.45ZM263.239 129.65C263.579 129.57 263.989 129.46 264.469 129.32C264.949 129.16 265.409 128.94 265.849 128.66C266.309 128.38 266.689 128.04 266.989 127.64C267.289 127.22 267.449 126.72 267.469 126.14C267.489 125.9 267.429 125.68 267.289 125.48C267.149 125.28 266.939 125.18 266.659 125.18C266.279 125.18 265.889 125.32 265.489 125.6C265.089 125.88 264.709 126.24 264.349 126.68C264.009 127.1 263.719 127.56 263.479 128.06C263.239 128.56 263.089 129.03 263.029 129.47C263.009 129.61 263.079 129.67 263.239 129.65ZM277.213 137.42C276.893 137.42 276.603 137.32 276.343 137.12C276.083 136.94 275.873 136.71 275.713 136.43C275.553 136.15 275.473 135.88 275.473 135.62C275.473 135.4 275.523 135.22 275.623 135.08C275.723 134.92 275.863 134.84 276.043 134.84C277.263 134.84 278.153 134.69 278.713 134.39C279.293 134.07 279.743 133.56 280.063 132.86C280.403 132.08 280.733 131.16 281.053 130.1C281.373 129.02 281.713 127.89 282.073 126.71C282.193 126.41 282.353 126.11 282.553 125.81C282.773 125.51 283.013 125.24 283.273 125C283.533 124.74 283.803 124.53 284.083 124.37C284.363 124.21 284.633 124.13 284.893 124.13C285.013 124.13 285.093 124.21 285.133 124.37C285.193 124.53 285.233 124.71 285.253 124.91L286.063 132.29C286.083 132.39 286.123 132.45 286.183 132.47C286.263 132.47 286.333 132.42 286.393 132.32L290.053 127.46C290.653 126.68 291.243 126.05 291.823 125.57C292.423 125.09 292.963 124.74 293.443 124.52C293.923 124.3 294.273 124.19 294.493 124.19C294.693 124.19 294.853 124.25 294.973 124.37C295.113 124.49 295.203 124.63 295.243 124.79C295.303 124.93 295.283 125.06 295.183 125.18C295.063 125.36 294.943 125.57 294.823 125.81C294.703 126.03 294.583 126.3 294.463 126.62L292.123 133.79C292.023 134.03 291.973 134.23 291.973 134.39C291.993 134.55 292.073 134.63 292.213 134.63C292.373 134.63 292.583 134.56 292.843 134.42C293.103 134.28 293.373 134.11 293.653 133.91C293.953 133.69 294.223 133.48 294.463 133.28C294.723 133.08 294.923 132.9 295.063 132.74C295.103 132.7 295.143 132.68 295.183 132.68C295.263 132.68 295.333 132.72 295.393 132.8C295.473 132.88 295.513 132.97 295.513 133.07C295.513 133.31 295.363 133.61 295.063 133.97C294.783 134.33 294.413 134.71 293.953 135.11C293.493 135.51 292.983 135.89 292.423 136.25C291.883 136.59 291.353 136.87 290.833 137.09C290.333 137.31 289.893 137.42 289.513 137.42C289.293 137.42 289.073 137.32 288.853 137.12C288.633 136.92 288.453 136.7 288.313 136.46C288.173 136.2 288.133 136 288.193 135.86L290.953 128.24C290.993 128.12 290.993 128.04 290.953 128C290.913 127.94 290.853 127.98 290.773 128.12L284.683 136.49C284.523 136.71 284.373 136.88 284.233 137C284.093 137.14 283.943 137.21 283.783 137.21C283.663 137.21 283.573 137.15 283.513 137.03C283.453 136.91 283.413 136.76 283.393 136.58L282.823 128.63C282.823 128.51 282.773 128.47 282.673 128.51C282.593 128.55 282.533 128.65 282.493 128.81C282.173 130.01 281.823 131.13 281.443 132.17C281.083 133.21 280.683 134.12 280.243 134.9C279.823 135.68 279.363 136.3 278.863 136.76C278.363 137.2 277.813 137.42 277.213 137.42ZM300.401 137.45C299.901 137.45 299.371 137.29 298.811 136.97C298.271 136.63 297.811 136.2 297.431 135.68C297.071 135.14 296.891 134.57 296.891 133.97C296.891 132.81 297.111 131.65 297.551 130.49C297.991 129.33 298.591 128.28 299.351 127.34C300.111 126.4 300.971 125.64 301.931 125.06C302.891 124.48 303.881 124.19 304.901 124.19C305.901 124.19 306.641 124.39 307.121 124.79C307.601 125.17 307.841 125.65 307.841 126.23C307.841 126.89 307.621 127.46 307.181 127.94C306.761 128.42 306.201 128.83 305.501 129.17C304.821 129.51 304.061 129.79 303.221 130.01C302.401 130.23 301.611 130.42 300.851 130.58C300.751 130.6 300.671 130.63 300.611 130.67C300.571 130.69 300.531 130.75 300.491 130.85C300.411 131.11 300.341 131.38 300.281 131.66C300.221 131.94 300.181 132.21 300.161 132.47C300.141 133.17 300.301 133.76 300.641 134.24C301.001 134.7 301.521 134.93 302.201 134.93C302.821 134.93 303.371 134.78 303.851 134.48C304.331 134.16 304.771 133.78 305.171 133.34C305.391 133.12 305.571 133.01 305.711 133.01C305.891 133.01 305.981 133.11 305.981 133.31C305.981 133.37 305.971 133.44 305.951 133.52C305.951 133.58 305.931 133.63 305.891 133.67C305.511 134.37 305.051 135.01 304.511 135.59C303.971 136.17 303.361 136.63 302.681 136.97C302.001 137.29 301.241 137.45 300.401 137.45ZM301.061 129.65C301.401 129.57 301.811 129.46 302.291 129.32C302.771 129.16 303.231 128.94 303.671 128.66C304.131 128.38 304.511 128.04 304.811 127.64C305.111 127.22 305.271 126.72 305.291 126.14C305.311 125.9 305.251 125.68 305.111 125.48C304.971 125.28 304.761 125.18 304.481 125.18C304.101 125.18 303.711 125.32 303.311 125.6C302.911 125.88 302.531 126.24 302.171 126.68C301.831 127.1 301.541 127.56 301.301 128.06C301.061 128.56 300.911 129.03 300.851 129.47C300.831 129.61 300.901 129.67 301.061 129.65ZM311.537 137.42C310.917 137.42 310.337 137.26 309.797 136.94C309.257 136.6 308.817 136.15 308.477 135.59C308.157 135.01 307.997 134.37 307.997 133.67C308.017 132.77 308.157 131.87 308.417 130.97C308.677 130.07 309.037 129.22 309.497 128.42C309.977 127.6 310.537 126.88 311.177 126.26C311.837 125.62 312.577 125.12 313.397 124.76C314.217 124.38 315.097 124.19 316.037 124.19C316.737 124.19 317.287 124.34 317.687 124.64C318.107 124.92 318.317 125.28 318.317 125.72C318.317 126.08 318.197 126.44 317.957 126.8C317.717 127.16 317.467 127.34 317.207 127.34C317.047 127.34 316.907 127.28 316.787 127.16C316.667 127.02 316.517 126.8 316.337 126.5C316.177 126.18 315.977 125.91 315.737 125.69C315.517 125.45 315.267 125.33 314.987 125.33C314.527 125.33 314.077 125.56 313.637 126.02C313.197 126.46 312.787 127.04 312.407 127.76C312.047 128.46 311.747 129.24 311.507 130.1C311.287 130.94 311.177 131.75 311.177 132.53C311.157 133.25 311.317 133.79 311.657 134.15C311.997 134.49 312.467 134.66 313.067 134.66C313.627 134.66 314.127 134.54 314.567 134.3C315.007 134.04 315.407 133.71 315.767 133.31C315.867 133.19 315.957 133.1 316.037 133.04C316.137 132.98 316.237 132.95 316.337 132.95C316.517 132.95 316.607 133.06 316.607 133.28C316.607 133.66 316.457 134.09 316.157 134.57C315.877 135.05 315.487 135.51 314.987 135.95C314.487 136.39 313.937 136.74 313.337 137C312.737 137.28 312.137 137.42 311.537 137.42ZM320.826 137.45C320.686 137.45 320.506 137.39 320.286 137.27C320.086 137.15 319.906 136.98 319.746 136.76C319.606 136.54 319.536 136.3 319.536 136.04C319.536 135.94 319.566 135.78 319.626 135.56C319.706 135.32 319.806 135.04 319.926 134.72L322.956 127.25C323.056 127.03 323.066 126.85 322.986 126.71C322.906 126.55 322.756 126.47 322.536 126.47C322.316 126.47 322.006 126.54 321.606 126.68C321.206 126.8 320.766 127.14 320.286 127.7C320.206 127.8 320.096 127.85 319.956 127.85C319.816 127.83 319.736 127.73 319.716 127.55C319.716 127.41 319.766 127.23 319.866 127.01C319.966 126.79 320.096 126.57 320.256 126.35C320.416 126.11 320.556 125.93 320.676 125.81C321.136 125.37 321.626 125 322.146 124.7C322.686 124.38 323.386 124.21 324.246 124.19C324.646 124.19 324.986 124.29 325.266 124.49C325.566 124.69 325.756 124.97 325.836 125.33C325.916 125.69 325.866 126.1 325.686 126.56L323.976 130.67C323.916 130.81 323.936 130.89 324.036 130.91C324.136 130.93 324.216 130.88 324.276 130.76C325.056 129.5 325.816 128.38 326.556 127.4C327.296 126.4 328.026 125.62 328.746 125.06C329.486 124.48 330.246 124.19 331.026 124.19C331.666 124.19 332.156 124.38 332.496 124.76C332.836 125.14 333.016 125.64 333.036 126.26C333.076 126.86 332.936 127.5 332.616 128.18L331.986 129.86C331.906 130 331.926 130.08 332.046 130.1C332.166 130.12 332.266 130.07 332.346 129.95C333.026 128.83 333.716 127.84 334.416 126.98C335.136 126.12 335.866 125.44 336.606 124.94C337.346 124.44 338.096 124.19 338.856 124.19C339.496 124.19 339.966 124.38 340.266 124.76C340.566 125.14 340.706 125.64 340.686 126.26C340.686 126.88 340.536 127.56 340.236 128.3L337.986 133.73C337.726 134.39 337.766 134.72 338.106 134.72C338.266 134.72 338.476 134.64 338.736 134.48C338.996 134.32 339.266 134.13 339.546 133.91C339.826 133.69 340.076 133.48 340.296 133.28C340.536 133.08 340.706 132.93 340.806 132.83C340.886 132.77 340.956 132.71 341.016 132.65C341.096 132.57 341.166 132.53 341.226 132.53C341.286 132.53 341.346 132.57 341.406 132.65C341.466 132.71 341.496 132.78 341.496 132.86C341.476 133.06 341.426 133.25 341.346 133.43C341.286 133.61 341.156 133.8 340.956 134C340.156 134.94 339.246 135.75 338.226 136.43C337.206 137.09 336.156 137.42 335.076 137.42C334.916 137.42 334.716 137.35 334.476 137.21C334.236 137.09 334.046 136.92 333.906 136.7C333.766 136.48 333.746 136.25 333.846 136.01L337.716 127.01C337.876 126.67 337.886 126.4 337.746 126.2C337.626 126 337.476 125.9 337.296 125.9C337.016 125.88 336.666 126.06 336.246 126.44C335.826 126.8 335.346 127.34 334.806 128.06C334.466 128.56 334.036 129.21 333.516 130.01C332.996 130.81 332.456 131.67 331.896 132.59C331.336 133.49 330.796 134.38 330.276 135.26C330.016 135.7 329.726 136.09 329.406 136.43C329.086 136.77 328.776 137.02 328.476 137.18C328.196 137.36 327.956 137.45 327.756 137.45C327.596 137.45 327.426 137.39 327.246 137.27C327.086 137.15 326.936 137 326.796 136.82C326.676 136.62 326.616 136.44 326.616 136.28C326.616 136.18 326.656 135.98 326.736 135.68C326.816 135.38 326.926 135.03 327.066 134.63L330.156 126.92C330.316 126.54 330.326 126.27 330.186 126.11C330.066 125.93 329.926 125.84 329.766 125.84C329.486 125.82 329.116 126.01 328.656 126.41C328.196 126.81 327.656 127.42 327.036 128.24C326.756 128.6 326.446 129.05 326.106 129.59C325.766 130.13 325.406 130.72 325.026 131.36C324.666 131.98 324.296 132.62 323.916 133.28C323.556 133.94 323.216 134.56 322.896 135.14C322.476 135.92 322.106 136.5 321.786 136.88C321.486 137.26 321.166 137.45 320.826 137.45ZM346.787 137.42C346.127 137.42 345.497 137.25 344.897 136.91C344.317 136.55 343.847 136.08 343.487 135.5C343.147 134.9 342.977 134.22 342.977 133.46C342.977 132.52 343.167 131.52 343.547 130.46C343.947 129.4 344.507 128.4 345.227 127.46C345.947 126.5 346.807 125.72 347.807 125.12C348.827 124.5 349.957 124.19 351.197 124.19C352.417 124.19 353.387 124.56 354.107 125.3C354.847 126.02 355.217 127 355.217 128.24C355.217 129.14 355.027 130.12 354.647 131.18C354.267 132.24 353.707 133.25 352.967 134.21C352.227 135.15 351.337 135.92 350.297 136.52C349.277 137.12 348.107 137.42 346.787 137.42ZM347.357 136.34C347.777 136.34 348.197 136.12 348.617 135.68C349.057 135.24 349.477 134.67 349.877 133.97C350.277 133.25 350.627 132.46 350.927 131.6C351.247 130.74 351.497 129.88 351.677 129.02C351.877 128.16 351.977 127.38 351.977 126.68C351.977 126.24 351.897 125.89 351.737 125.63C351.577 125.37 351.287 125.24 350.867 125.24C350.487 125.24 350.077 125.45 349.637 125.87C349.217 126.29 348.807 126.85 348.407 127.55C348.007 128.23 347.637 129 347.297 129.86C346.977 130.7 346.717 131.55 346.517 132.41C346.317 133.27 346.217 134.08 346.217 134.84C346.217 135.36 346.317 135.74 346.517 135.98C346.737 136.22 347.017 136.34 347.357 136.34ZM366.445 137.42C365.845 137.42 365.255 137.26 364.675 136.94C364.115 136.62 363.655 136.17 363.295 135.59C362.935 134.99 362.755 134.31 362.755 133.55C362.755 132.79 362.865 131.99 363.085 131.15C363.325 130.29 363.655 129.45 364.075 128.63C364.515 127.81 365.045 127.07 365.665 126.41C366.305 125.73 367.015 125.19 367.795 124.79C368.595 124.39 369.465 124.19 370.405 124.19C370.665 124.19 370.895 124.24 371.095 124.34C371.295 124.42 371.435 124.48 371.515 124.52C371.575 124.56 371.645 124.58 371.725 124.58C371.805 124.58 371.865 124.56 371.905 124.52C371.965 124.42 372.005 124.23 372.025 123.95C372.065 123.65 372.085 123.39 372.085 123.17C372.125 122.11 372.005 121.14 371.725 120.26C371.465 119.38 371.035 118.67 370.435 118.13C369.855 117.59 369.105 117.32 368.185 117.32C367.865 117.32 367.545 117.39 367.225 117.53C366.905 117.65 366.665 117.72 366.505 117.74C366.385 117.74 366.265 117.71 366.145 117.65C366.045 117.59 365.995 117.51 365.995 117.41C365.995 117.29 366.035 117.18 366.115 117.08C366.215 116.98 366.335 116.88 366.475 116.78C366.875 116.54 367.325 116.35 367.825 116.21C368.325 116.05 368.845 115.97 369.385 115.97C370.525 115.97 371.525 116.31 372.385 116.99C373.265 117.67 373.945 118.58 374.425 119.72C374.925 120.86 375.175 122.14 375.175 123.56C375.175 124.82 375.045 126.1 374.785 127.4C374.545 128.7 374.175 129.95 373.675 131.15C373.195 132.35 372.595 133.42 371.875 134.36C371.175 135.3 370.365 136.05 369.445 136.61C368.545 137.15 367.545 137.42 366.445 137.42ZM366.925 136.34C367.345 136.34 367.775 136.13 368.215 135.71C368.655 135.27 369.075 134.7 369.475 134C369.875 133.28 370.225 132.5 370.525 131.66C370.845 130.82 371.095 129.99 371.275 129.17C371.475 128.35 371.575 127.61 371.575 126.95C371.575 126.39 371.485 125.97 371.305 125.69C371.145 125.39 370.865 125.24 370.465 125.24C370.065 125.24 369.645 125.46 369.205 125.9C368.785 126.32 368.375 126.89 367.975 127.61C367.575 128.31 367.205 129.08 366.865 129.92C366.545 130.74 366.285 131.57 366.085 132.41C365.885 133.23 365.785 133.96 365.785 134.6C365.785 135.16 365.875 135.59 366.055 135.89C366.255 136.19 366.545 136.34 366.925 136.34ZM375.24 137.42C374.74 137.42 374.35 137.29 374.07 137.03C373.77 136.77 373.57 136.48 373.47 136.16C373.35 135.82 373.3 135.52 373.32 135.26C373.34 135.06 373.38 134.89 373.44 134.75C373.5 134.59 373.62 134.51 373.8 134.51C373.92 134.51 374.05 134.53 374.19 134.57C374.31 134.61 374.45 134.66 374.61 134.72C374.79 134.76 374.99 134.81 375.21 134.87C375.43 134.91 375.69 134.93 375.99 134.93C376.49 134.93 376.91 134.86 377.25 134.72C377.59 134.58 377.88 134.29 378.12 133.85L381.69 127.91C382.41 126.71 383.18 125.79 384 125.15C384.84 124.51 385.76 124.19 386.76 124.19C386.94 124.19 387.13 124.24 387.33 124.34C387.55 124.44 387.73 124.57 387.87 124.73C388.03 124.87 388.11 125.02 388.11 125.18C388.09 125.3 388.06 125.46 388.02 125.66C388 125.84 387.97 126.01 387.93 126.17L385.41 134C385.25 134.48 385.3 134.72 385.56 134.72C385.7 134.72 385.9 134.64 386.16 134.48C386.44 134.32 386.73 134.13 387.03 133.91C387.33 133.67 387.61 133.44 387.87 133.22C388.13 133 388.33 132.82 388.47 132.68C388.51 132.64 388.54 132.61 388.56 132.59C388.58 132.57 388.61 132.56 388.65 132.56C388.73 132.56 388.8 132.61 388.86 132.71C388.92 132.79 388.95 132.89 388.95 133.01C388.95 133.13 388.91 133.28 388.83 133.46C388.75 133.62 388.62 133.8 388.44 134C388.12 134.4 387.73 134.8 387.27 135.2C386.81 135.6 386.33 135.97 385.83 136.31C385.33 136.65 384.84 136.92 384.36 137.12C383.9 137.32 383.49 137.42 383.13 137.42C382.79 137.42 382.49 137.3 382.23 137.06C381.99 136.84 381.81 136.59 381.69 136.31C381.59 136.01 381.57 135.75 381.63 135.53L384.6 126.98C384.68 126.76 384.7 126.59 384.66 126.47C384.62 126.35 384.54 126.29 384.42 126.29C384.16 126.29 383.89 126.49 383.61 126.89C383.33 127.29 383.06 127.68 382.8 128.06C382.7 128.22 382.5 128.55 382.2 129.05C381.92 129.55 381.58 130.15 381.18 130.85C380.8 131.53 380.39 132.23 379.95 132.95C379.51 133.65 379.08 134.3 378.66 134.9C378.26 135.5 377.9 135.97 377.58 136.31C377.18 136.73 376.78 137.02 376.38 137.18C376 137.34 375.62 137.42 375.24 137.42ZM399.343 137.42C399.043 137.42 398.763 137.31 398.503 137.09C398.243 136.89 398.043 136.65 397.903 136.37C397.763 136.07 397.733 135.81 397.812 135.59L399.463 131.21C399.523 131.07 399.553 130.96 399.553 130.88C399.553 130.78 399.513 130.73 399.433 130.73C399.253 130.73 399.103 130.78 398.983 130.88C398.883 130.96 398.743 131.09 398.563 131.27C398.023 131.87 397.493 132.52 396.973 133.22C396.473 133.92 395.963 134.58 395.443 135.2C394.923 135.8 394.373 136.3 393.793 136.7C393.213 137.1 392.593 137.3 391.933 137.3C391.053 137.3 390.423 137.09 390.042 136.67C389.642 136.25 389.442 135.75 389.442 135.17C389.442 134.91 389.482 134.66 389.562 134.42C389.642 134.16 389.752 133.93 389.892 133.73C390.232 133.97 390.603 134.17 391.003 134.33C391.403 134.49 391.883 134.57 392.443 134.57C392.783 134.57 393.203 134.44 393.703 134.18C394.223 133.9 394.793 133.52 395.413 133.04C396.033 132.54 396.673 131.96 397.333 131.3C397.413 131.22 397.443 131.16 397.423 131.12C397.423 131.08 397.363 131.05 397.243 131.03C396.343 130.91 395.643 130.57 395.143 130.01C394.663 129.45 394.423 128.82 394.423 128.12C394.423 127.4 394.663 126.76 395.143 126.2C395.623 125.64 396.303 125.19 397.183 124.85C398.063 124.51 399.113 124.34 400.333 124.34C400.733 124.34 401.063 124.35 401.323 124.37C401.603 124.37 401.833 124.38 402.013 124.4C402.213 124.42 402.403 124.44 402.583 124.46C402.763 124.46 402.973 124.46 403.213 124.46C403.533 124.46 403.873 124.42 404.233 124.34C404.613 124.24 404.833 124.19 404.893 124.19C405.033 124.19 405.123 124.26 405.163 124.4C405.223 124.54 405.253 124.69 405.253 124.85C405.253 124.97 405.183 125.18 405.043 125.48C404.923 125.78 404.723 126.25 404.443 126.89L401.503 134C401.403 134.24 401.363 134.42 401.383 134.54C401.403 134.66 401.483 134.72 401.623 134.72C401.783 134.72 401.993 134.65 402.253 134.51C402.533 134.37 402.823 134.19 403.123 133.97C403.423 133.75 403.703 133.54 403.963 133.34C404.223 133.12 404.423 132.93 404.563 132.77C404.623 132.71 404.663 132.68 404.683 132.68C404.783 132.68 404.863 132.72 404.923 132.8C405.003 132.88 405.043 132.97 405.043 133.07C405.043 133.33 404.903 133.65 404.623 134.03C404.343 134.39 403.973 134.77 403.513 135.17C403.073 135.55 402.593 135.91 402.073 136.25C401.573 136.59 401.073 136.87 400.573 137.09C400.093 137.31 399.683 137.42 399.343 137.42ZM399.553 129.74C399.713 129.74 399.863 129.71 400.003 129.65C400.143 129.57 400.233 129.46 400.273 129.32L401.593 125.99C401.713 125.71 401.673 125.51 401.473 125.39C401.273 125.25 400.913 125.18 400.393 125.18C399.613 125.18 398.923 125.43 398.323 125.93C397.723 126.41 397.423 127.04 397.423 127.82C397.423 128.38 397.623 128.84 398.022 129.2C398.423 129.56 398.933 129.74 399.553 129.74ZM417.334 137.42C416.674 137.42 416.044 137.25 415.444 136.91C414.864 136.55 414.394 136.08 414.034 135.5C413.694 134.9 413.524 134.22 413.524 133.46C413.524 132.52 413.714 131.52 414.094 130.46C414.494 129.4 415.054 128.4 415.774 127.46C416.494 126.5 417.354 125.72 418.354 125.12C419.374 124.5 420.504 124.19 421.744 124.19C422.964 124.19 423.934 124.56 424.654 125.3C425.394 126.02 425.764 127 425.764 128.24C425.764 129.14 425.574 130.12 425.194 131.18C424.814 132.24 424.254 133.25 423.514 134.21C422.774 135.15 421.884 135.92 420.844 136.52C419.824 137.12 418.654 137.42 417.334 137.42ZM417.904 136.34C418.324 136.34 418.744 136.12 419.164 135.68C419.604 135.24 420.024 134.67 420.424 133.97C420.824 133.25 421.174 132.46 421.474 131.6C421.794 130.74 422.044 129.88 422.224 129.02C422.424 128.16 422.524 127.38 422.524 126.68C422.524 126.24 422.444 125.89 422.284 125.63C422.124 125.37 421.834 125.24 421.414 125.24C421.034 125.24 420.624 125.45 420.184 125.87C419.764 126.29 419.354 126.85 418.954 127.55C418.554 128.23 418.184 129 417.844 129.86C417.524 130.7 417.264 131.55 417.064 132.41C416.864 133.27 416.764 134.08 416.764 134.84C416.764 135.36 416.864 135.74 417.064 135.98C417.284 136.22 417.564 136.34 417.904 136.34ZM428.843 137.45C428.703 137.45 428.523 137.39 428.303 137.27C428.103 137.15 427.923 136.98 427.763 136.76C427.623 136.54 427.553 136.3 427.553 136.04C427.553 135.94 427.583 135.78 427.643 135.56C427.723 135.32 427.823 135.04 427.943 134.72L430.973 127.25C431.073 127.03 431.083 126.85 431.003 126.71C430.923 126.55 430.773 126.47 430.553 126.47C430.333 126.47 430.023 126.54 429.623 126.68C429.223 126.8 428.783 127.14 428.303 127.7C428.223 127.8 428.113 127.85 427.973 127.85C427.833 127.83 427.753 127.73 427.733 127.55C427.733 127.41 427.783 127.23 427.883 127.01C427.983 126.79 428.113 126.57 428.273 126.35C428.433 126.11 428.573 125.93 428.693 125.81C429.153 125.37 429.643 125 430.163 124.7C430.703 124.38 431.403 124.21 432.263 124.19C432.663 124.19 433.003 124.29 433.283 124.49C433.583 124.69 433.773 124.97 433.853 125.33C433.933 125.69 433.883 126.1 433.703 126.56L431.993 130.67C431.933 130.81 431.953 130.89 432.053 130.91C432.153 130.93 432.233 130.88 432.293 130.76C433.073 129.5 433.833 128.38 434.573 127.4C435.313 126.4 436.043 125.62 436.763 125.06C437.503 124.48 438.263 124.19 439.043 124.19C439.683 124.19 440.173 124.38 440.513 124.76C440.853 125.14 441.033 125.64 441.053 126.26C441.093 126.86 440.953 127.5 440.633 128.18L440.003 129.86C439.923 130 439.943 130.08 440.063 130.1C440.183 130.12 440.283 130.07 440.363 129.95C441.043 128.83 441.733 127.84 442.433 126.98C443.153 126.12 443.883 125.44 444.623 124.94C445.363 124.44 446.113 124.19 446.873 124.19C447.513 124.19 447.983 124.38 448.283 124.76C448.583 125.14 448.723 125.64 448.703 126.26C448.703 126.88 448.553 127.56 448.253 128.3L446.003 133.73C445.743 134.39 445.783 134.72 446.123 134.72C446.283 134.72 446.493 134.64 446.753 134.48C447.013 134.32 447.283 134.13 447.563 133.91C447.843 133.69 448.093 133.48 448.313 133.28C448.553 133.08 448.723 132.93 448.823 132.83C448.903 132.77 448.973 132.71 449.033 132.65C449.113 132.57 449.183 132.53 449.243 132.53C449.303 132.53 449.363 132.57 449.423 132.65C449.483 132.71 449.513 132.78 449.513 132.86C449.493 133.06 449.443 133.25 449.363 133.43C449.303 133.61 449.173 133.8 448.973 134C448.173 134.94 447.263 135.75 446.243 136.43C445.223 137.09 444.173 137.42 443.093 137.42C442.933 137.42 442.733 137.35 442.493 137.21C442.253 137.09 442.063 136.92 441.923 136.7C441.783 136.48 441.763 136.25 441.863 136.01L445.733 127.01C445.893 126.67 445.903 126.4 445.763 126.2C445.643 126 445.493 125.9 445.313 125.9C445.033 125.88 444.683 126.06 444.263 126.44C443.843 126.8 443.363 127.34 442.823 128.06C442.483 128.56 442.053 129.21 441.533 130.01C441.013 130.81 440.473 131.67 439.913 132.59C439.353 133.49 438.813 134.38 438.293 135.26C438.033 135.7 437.743 136.09 437.423 136.43C437.103 136.77 436.793 137.02 436.493 137.18C436.213 137.36 435.973 137.45 435.773 137.45C435.613 137.45 435.443 137.39 435.263 137.27C435.103 137.15 434.953 137 434.813 136.82C434.693 136.62 434.633 136.44 434.633 136.28C434.633 136.18 434.673 135.98 434.753 135.68C434.833 135.38 434.943 135.03 435.083 134.63L438.173 126.92C438.333 126.54 438.343 126.27 438.203 126.11C438.083 125.93 437.943 125.84 437.783 125.84C437.503 125.82 437.133 126.01 436.673 126.41C436.213 126.81 435.673 127.42 435.053 128.24C434.773 128.6 434.463 129.05 434.123 129.59C433.783 130.13 433.423 130.72 433.043 131.36C432.683 131.98 432.313 132.62 431.933 133.28C431.573 133.94 431.233 134.56 430.913 135.14C430.493 135.92 430.123 136.5 429.803 136.88C429.503 137.26 429.183 137.45 428.843 137.45ZM454.775 137.42C454.175 137.42 453.585 137.26 453.005 136.94C452.445 136.62 451.985 136.17 451.625 135.59C451.265 134.99 451.085 134.31 451.085 133.55C451.085 132.79 451.195 131.99 451.415 131.15C451.655 130.29 451.985 129.45 452.405 128.63C452.845 127.81 453.375 127.07 453.995 126.41C454.635 125.73 455.345 125.19 456.125 124.79C456.925 124.39 457.795 124.19 458.735 124.19C458.995 124.19 459.225 124.24 459.425 124.34C459.625 124.42 459.765 124.48 459.845 124.52C459.905 124.56 459.975 124.58 460.055 124.58C460.135 124.58 460.195 124.56 460.235 124.52C460.295 124.42 460.335 124.23 460.355 123.95C460.395 123.65 460.415 123.39 460.415 123.17C460.455 122.11 460.335 121.14 460.055 120.26C459.795 119.38 459.365 118.67 458.765 118.13C458.185 117.59 457.435 117.32 456.515 117.32C456.195 117.32 455.875 117.39 455.555 117.53C455.235 117.65 454.995 117.72 454.835 117.74C454.715 117.74 454.595 117.71 454.475 117.65C454.375 117.59 454.325 117.51 454.325 117.41C454.325 117.29 454.365 117.18 454.445 117.08C454.545 116.98 454.665 116.88 454.805 116.78C455.205 116.54 455.655 116.35 456.155 116.21C456.655 116.05 457.175 115.97 457.715 115.97C458.855 115.97 459.855 116.31 460.715 116.99C461.595 117.67 462.275 118.58 462.755 119.72C463.255 120.86 463.505 122.14 463.505 123.56C463.505 124.82 463.375 126.1 463.115 127.4C462.875 128.7 462.505 129.95 462.005 131.15C461.525 132.35 460.925 133.42 460.205 134.36C459.505 135.3 458.695 136.05 457.775 136.61C456.875 137.15 455.875 137.42 454.775 137.42ZM455.255 136.34C455.675 136.34 456.105 136.13 456.545 135.71C456.985 135.27 457.405 134.7 457.805 134C458.205 133.28 458.555 132.5 458.855 131.66C459.175 130.82 459.425 129.99 459.605 129.17C459.805 128.35 459.905 127.61 459.905 126.95C459.905 126.39 459.815 125.97 459.635 125.69C459.475 125.39 459.195 125.24 458.795 125.24C458.395 125.24 457.975 125.46 457.535 125.9C457.115 126.32 456.705 126.89 456.305 127.61C455.905 128.31 455.535 129.08 455.195 129.92C454.875 130.74 454.615 131.57 454.415 132.41C454.215 133.23 454.115 133.96 454.115 134.6C454.115 135.16 454.205 135.59 454.385 135.89C454.585 136.19 454.875 136.34 455.255 136.34ZM477.329 137.42C476.849 137.42 476.469 137.27 476.189 136.97C475.929 136.65 475.799 136.32 475.799 135.98C475.799 135.78 475.809 135.61 475.829 135.47C475.869 135.31 475.939 135.11 476.039 134.87C476.279 134.23 476.579 133.5 476.939 132.68C477.299 131.86 477.669 131.01 478.049 130.13C478.449 129.23 478.819 128.36 479.159 127.52C479.519 126.68 479.809 125.92 480.029 125.24C480.169 124.86 480.309 124.59 480.449 124.43C480.589 124.27 480.799 124.19 481.079 124.19C481.459 124.19 481.829 124.25 482.189 124.37C482.549 124.49 482.819 124.68 482.999 124.94C483.179 125.18 483.189 125.48 483.029 125.84L479.579 133.88C479.519 134 479.479 134.11 479.459 134.21C479.459 134.31 479.459 134.4 479.459 134.48C479.459 134.7 479.539 134.81 479.699 134.81C479.859 134.81 480.069 134.73 480.329 134.57C480.609 134.41 480.899 134.22 481.199 134C481.499 133.76 481.769 133.53 482.009 133.31C482.269 133.09 482.469 132.9 482.609 132.74C482.669 132.7 482.709 132.68 482.729 132.68C482.829 132.68 482.909 132.72 482.969 132.8C483.029 132.86 483.059 132.93 483.059 133.01C483.059 133.37 482.909 133.76 482.609 134.18C482.329 134.58 481.959 134.98 481.499 135.38C481.059 135.76 480.579 136.1 480.059 136.4C479.539 136.7 479.039 136.94 478.559 137.12C478.079 137.32 477.669 137.42 477.329 137.42ZM468.029 137.42C467.089 137.42 466.369 137.26 465.869 136.94C465.389 136.62 465.119 136.18 465.059 135.62C464.999 135.06 465.089 134.44 465.329 133.76C465.709 132.74 466.099 131.72 466.499 130.7C466.919 129.68 467.299 128.67 467.639 127.67C467.679 127.51 467.679 127.39 467.639 127.31C467.619 127.23 467.569 127.19 467.489 127.19C467.349 127.19 467.129 127.26 466.829 127.4C466.529 127.52 466.219 127.66 465.899 127.82C465.599 127.98 465.359 128.14 465.179 128.3C465.099 128.34 465.009 128.34 464.909 128.3C464.809 128.24 464.759 128.16 464.759 128.06C464.759 127.94 464.799 127.8 464.879 127.64C464.959 127.48 465.089 127.3 465.269 127.1C465.629 126.7 466.059 126.33 466.559 125.99C467.079 125.63 467.599 125.32 468.119 125.06C468.659 124.8 469.159 124.59 469.619 124.43C470.079 124.27 470.439 124.19 470.699 124.19C471.079 124.19 471.369 124.35 471.569 124.67C471.769 124.97 471.789 125.29 471.629 125.63L469.709 129.92C469.669 130 469.679 130.05 469.739 130.07C469.819 130.07 469.889 130.04 469.949 129.98C470.489 129.46 471.109 129.04 471.809 128.72C472.529 128.4 473.189 128.24 473.789 128.24C474.509 128.24 475.049 128.49 475.409 128.99C475.789 129.49 475.979 130.08 475.979 130.76C475.999 131.46 475.789 132.2 475.349 132.98C474.909 133.76 474.309 134.49 473.549 135.17C472.809 135.83 471.959 136.37 470.999 136.79C470.059 137.21 469.069 137.42 468.029 137.42ZM468.779 136.55C469.279 136.55 469.759 136.37 470.219 136.01C470.699 135.65 471.139 135.19 471.539 134.63C471.939 134.05 472.249 133.44 472.469 132.8C472.709 132.16 472.829 131.57 472.829 131.03C472.829 130.65 472.769 130.34 472.649 130.1C472.529 129.86 472.349 129.74 472.109 129.74C471.689 129.74 471.229 129.92 470.729 130.28C470.249 130.64 469.809 131.07 469.409 131.57C468.949 132.15 468.559 132.79 468.239 133.49C467.919 134.17 467.759 134.72 467.759 135.14C467.759 135.48 467.839 135.8 467.999 136.1C468.159 136.4 468.419 136.55 468.779 136.55ZM485.403 137.42C484.963 137.42 484.623 137.29 484.383 137.03C484.123 136.77 483.993 136.45 483.993 136.07C483.993 135.79 484.073 135.5 484.233 135.2C484.373 134.9 484.553 134.64 484.773 134.42C485.013 134.2 485.233 134.09 485.433 134.09C485.553 134.09 485.663 134.15 485.763 134.27C485.863 134.37 485.943 134.48 486.003 134.6C486.083 134.76 486.183 134.89 486.303 134.99C486.423 135.07 486.573 135.11 486.753 135.11C486.933 135.11 487.113 135.07 487.293 134.99C487.473 134.89 487.663 134.74 487.863 134.54C488.103 134.26 488.353 133.97 488.613 133.67C488.893 133.37 489.163 133.07 489.423 132.77C489.703 132.45 489.973 132.13 490.233 131.81C490.313 131.69 490.363 131.58 490.383 131.48C490.403 131.38 490.393 131.25 490.353 131.09L489.213 127.13C489.153 126.95 489.093 126.82 489.033 126.74C488.973 126.66 488.883 126.62 488.763 126.62C488.583 126.62 488.333 126.75 488.013 127.01C487.693 127.27 487.343 127.64 486.963 128.12C486.923 128.18 486.863 128.25 486.783 128.33C486.723 128.39 486.643 128.42 486.543 128.42C486.463 128.42 486.393 128.39 486.333 128.33C486.293 128.25 486.273 128.15 486.273 128.03C486.273 127.67 486.383 127.28 486.603 126.86C486.823 126.42 487.113 126 487.473 125.6C487.833 125.2 488.243 124.87 488.703 124.61C489.163 124.33 489.623 124.19 490.083 124.19C490.543 124.19 490.893 124.36 491.133 124.7C491.373 125.04 491.583 125.49 491.763 126.05L492.573 128.93C492.633 129.21 492.763 129.22 492.963 128.96L494.853 126.29C495.353 125.61 495.843 125.09 496.323 124.73C496.823 124.37 497.313 124.19 497.793 124.19C498.273 124.19 498.683 124.37 499.023 124.73C499.363 125.09 499.533 125.42 499.533 125.72C499.533 125.98 499.453 126.26 499.293 126.56C499.133 126.84 498.943 127.08 498.723 127.28C498.503 127.48 498.303 127.58 498.123 127.58C497.923 127.58 497.773 127.54 497.673 127.46C497.593 127.36 497.513 127.24 497.433 127.1C497.353 126.9 497.263 126.75 497.163 126.65C497.063 126.55 496.913 126.5 496.713 126.5C496.533 126.5 496.313 126.57 496.053 126.71C495.793 126.85 495.483 127.12 495.123 127.52C494.843 127.82 494.543 128.18 494.223 128.6C493.923 129 493.613 129.45 493.293 129.95C493.213 130.11 493.143 130.27 493.083 130.43C493.043 130.59 493.063 130.8 493.143 131.06L494.043 134.33C494.143 134.65 494.243 134.86 494.343 134.96C494.443 135.06 494.563 135.11 494.703 135.11C494.903 135.11 495.163 134.95 495.483 134.63C495.823 134.31 496.163 133.83 496.503 133.19C496.623 132.99 496.753 132.89 496.893 132.89C496.973 132.89 497.033 132.93 497.073 133.01C497.133 133.07 497.163 133.2 497.163 133.4C497.163 133.68 497.063 134.05 496.863 134.51C496.663 134.95 496.393 135.4 496.053 135.86C495.713 136.3 495.323 136.67 494.883 136.97C494.443 137.27 493.973 137.42 493.473 137.42C492.913 137.42 492.463 137.23 492.123 136.85C491.803 136.45 491.573 135.99 491.433 135.47C491.333 135.07 491.233 134.62 491.133 134.12C491.033 133.62 490.933 133.17 490.833 132.77C490.793 132.61 490.743 132.52 490.683 132.5C490.623 132.46 490.533 132.51 490.413 132.65C490.053 133.11 489.703 133.6 489.363 134.12C489.023 134.62 488.663 135.1 488.283 135.56C487.803 136.2 487.313 136.67 486.813 136.97C486.313 137.27 485.843 137.42 485.403 137.42ZM499.999 137.42C499.739 137.42 499.469 137.34 499.189 137.18C498.929 137.04 498.709 136.86 498.529 136.64C498.349 136.42 498.259 136.2 498.259 135.98C498.259 135.32 498.459 134.59 498.859 133.79C499.259 132.99 499.869 132.07 500.689 131.03C501.529 129.97 502.609 128.76 503.929 127.4C504.869 126.46 505.699 125.72 506.419 125.18C507.159 124.62 507.709 124.34 508.069 124.34C508.529 124.34 509.019 124.57 509.539 125.03C509.719 125.23 509.809 125.33 509.809 125.33C509.809 125.33 509.819 125.33 509.839 125.33C509.879 125.33 509.909 125.32 509.929 125.3C509.949 125.28 509.979 125.23 510.019 125.15C510.219 124.79 510.349 124.56 510.409 124.46C510.469 124.34 510.499 124.26 510.499 124.22C510.599 123.98 510.799 123.86 511.099 123.86C511.379 123.86 511.659 123.92 511.939 124.04C512.239 124.16 512.479 124.31 512.659 124.49C512.859 124.65 512.959 124.8 512.959 124.94C512.959 125.06 512.929 125.21 512.869 125.39L509.749 133.79C509.549 134.37 509.659 134.66 510.079 134.66C510.359 134.66 510.739 134.49 511.219 134.15C511.719 133.79 512.189 133.36 512.629 132.86C512.689 132.82 512.729 132.8 512.749 132.8C512.769 132.78 512.789 132.77 512.809 132.77C512.909 132.77 512.989 132.81 513.049 132.89C513.109 132.95 513.139 133.05 513.139 133.19C513.139 133.43 512.959 133.78 512.599 134.24C512.259 134.7 511.839 135.15 511.339 135.59C510.679 136.17 510.019 136.62 509.359 136.94C508.699 137.26 508.129 137.42 507.649 137.42C507.389 137.42 507.119 137.34 506.839 137.18C506.559 137.04 506.329 136.86 506.149 136.64C505.969 136.4 505.879 136.17 505.879 135.95C505.879 135.77 505.939 135.54 506.059 135.26C506.059 135.24 506.089 135.14 506.149 134.96C506.229 134.76 506.329 134.52 506.449 134.24C506.569 133.94 506.699 133.65 506.839 133.37C506.979 133.07 507.109 132.79 507.229 132.53C507.289 132.39 507.289 132.29 507.229 132.23C507.189 132.15 507.129 132.15 507.049 132.23C505.969 133.47 504.999 134.47 504.139 135.23C503.299 135.99 502.549 136.55 501.889 136.91C501.229 137.25 500.599 137.42 499.999 137.42ZM502.669 134.66C503.049 134.66 503.629 134.33 504.409 133.67C505.189 133.01 506.019 132.15 506.899 131.09C507.579 130.27 508.119 129.53 508.519 128.87C508.919 128.21 509.119 127.73 509.119 127.43C509.119 127.27 508.939 127.04 508.579 126.74C508.419 126.6 508.239 126.49 508.039 126.41C507.859 126.33 507.709 126.29 507.589 126.29C507.269 126.29 506.819 126.47 506.239 126.83C505.679 127.19 505.149 127.61 504.649 128.09C504.169 128.57 503.709 129.15 503.269 129.83C502.829 130.49 502.469 131.16 502.189 131.84C501.909 132.52 501.769 133.11 501.769 133.61C501.769 133.93 501.849 134.19 502.009 134.39C502.169 134.57 502.389 134.66 502.669 134.66Z" fill="#F0581B"/>
<defs>
<filter id="filter0_b_15_161" x="77.8182" y="81.4545" width="28" height="24.3636" filterUnits="userSpaceOnUse" color-interpolation-filters="sRGB">
<feFlood flood-opacity="0" result="BackgroundImageFix"/>
<feGaussianBlur in="BackgroundImageFix" stdDeviation="2"/>
<feComposite in2="SourceAlpha" operator="in" result="effect1_backgroundBlur_15_161"/>
<feBlend mode="normal" in="SourceGraphic" in2="effect1_backgroundBlur_15_161" result="shape"/>
</filter>
</defs>
</svg>
