<svg width="93" height="93" viewBox="0 0 93 93" fill="none" xmlns="http://www.w3.org/2000/svg">
<path fill-rule="evenodd" clip-rule="evenodd" d="M49.5083 58.0452C44.4076 61.6337 38.2084 63.7376 31.5231 63.7376C14.1134 63.7376 0 49.4695 0 31.8688C0 14.2682 14.1134 0 31.5231 0C48.9329 0 63.0463 14.2682 63.0463 31.8688C63.0463 38.1 61.2773 43.9135 58.2194 48.8241L93.0001 83.9862L84.084 93L49.5083 58.0452ZM56.7417 31.8688C56.7417 45.9493 45.451 57.3639 31.5232 57.3639C17.5954 57.3639 6.30469 45.9493 6.30469 31.8688C6.30469 17.7883 17.5954 6.37377 31.5232 6.37377C45.451 6.37377 56.7417 17.7883 56.7417 31.8688Z" fill="#002817"/>
</svg>
